<?xml version="1.0" encoding="UTF-8"?>
 <!DOCTYPE score-partwise PUBLIC "-//Recordare//DTD MusicXML 3.0 Partwise//EN" "http://www.musicxml.org/dtds/partwise.dtd">
 <score-partwise>
   <work>
     <work-title>test_score</work-title>
     </work>
   <identification>
     <encoding>
       <software>MuseScore 2.1.0</software>
       <encoding-date>2017-05-29</encoding-date>
       <supports element="accidental" type="yes"/>
       <supports element="beam" type="yes"/>
       <supports element="print" attribute="new-page" type="yes" value="yes"/>
       <supports element="print" attribute="new-system" type="yes" value="yes"/>
       <supports element="stem" type="yes"/>
       </encoding>
     </identification>
   <defaults>
     <scaling>
       <millimeters>7.05556</millimeters>
       <tenths>40</tenths>
       </scaling>
     <page-layout>
       <page-height>1683.36</page-height>
       <page-width>1190.88</page-width>
       <page-margins type="even">
         <left-margin>56.6929</left-margin>
         <right-margin>56.6929</right-margin>
         <top-margin>56.6929</top-margin>
         <bottom-margin>113.386</bottom-margin>
         </page-margins>
       <page-margins type="odd">
         <left-margin>56.6929</left-margin>
         <right-margin>56.6929</right-margin>
         <top-margin>56.6929</top-margin>
         <bottom-margin>113.386</bottom-margin>
         </page-margins>
       </page-layout>
     <word-font font-family="FreeSerif" font-size="10"/>
     <lyric-font font-family="FreeSerif" font-size="11"/>
     </defaults>
   <credit page="1">
     <credit-words default-x="595.44" default-y="1626.67" justify="center" valign="top" font-size="24">test_score</credit-words>
     </credit>
   <part-list>
     <score-part id="P1">
       <part-name>Piano</part-name>
       <part-abbreviation>Pno.</part-abbreviation>
       <score-instrument id="P1-I1">
         <instrument-name>Piano</instrument-name>
         </score-instrument>
       <midi-device id="P1-I1" port="1"></midi-device>
       <midi-instrument id="P1-I1">
         <midi-channel>1</midi-channel>
         <midi-program>1</midi-program>
         <volume>78.7402</volume>
         <pan>0</pan>
         </midi-instrument>
       </score-part>
     </part-list>
   <part id="P1">
     <measure number="0" implicit="yes" width="115.36">
       <print>
         <system-layout>
           <system-margins>
             <left-margin>21.00</left-margin>
             <right-margin>0.00</right-margin>
             </system-margins>
           <top-system-distance>170.00</top-system-distance>
           </system-layout>
         <staff-layout number="2">
           <staff-distance>158.00</staff-distance>
           </staff-layout>
         </print>
       <attributes>
         <divisions>12</divisions>
         <key>
           <fifths>0</fifths>
           </key>
         <time>
           <beats>4</beats>
           <beat-type>4</beat-type>
           </time>
         <staves>2</staves>
         <clef number="1">
           <sign>G</sign>
           <line>2</line>
           </clef>
         <clef number="2">
           <sign>F</sign>
           <line>4</line>
           </clef>
         </attributes>
       <direction placement="above">
         <direction-type>
           <metronome parentheses="no">
             <beat-unit>quarter</beat-unit>
             <per-minute>100</per-minute>
             </metronome>
           </direction-type>
         <staff>1</staff>
         <sound tempo="100"/>
         </direction>
       <note>
         <rest/>
         <duration>12</duration>
         <voice>1</voice>
         <type>quarter</type>
         <staff>1</staff>
         </note>
       <backup>
         <duration>12</duration>
         </backup>
       <note>
         <rest/>
         <duration>12</duration>
         <voice>5</voice>
         <type>quarter</type>
         <staff>2</staff>
         </note>
       </measure>
     <measure number="1" width="158.57">
       <note>
         <rest/>
         <duration>12</duration>
         <voice>1</voice>
         <type>quarter</type>
         <staff>1</staff>
         </note>
       <note default-x="52.95" default-y="-15.00">
         <pitch>
           <step>C</step>
           <octave>5</octave>
           </pitch>
         <duration>12</duration>
         <voice>1</voice>
         <type>quarter</type>
         <stem>down</stem>
         <notehead color="#0000FF">normal</notehead>
         <staff>1</staff>
         <lyric number="1">
           <syllabic>single</syllabic>
           <text>1</text>
           </lyric>
         </note>
       <note default-x="92.60" default-y="-15.00">
         <pitch>
           <step>C</step>
           <alter>1</alter>
           <octave>5</octave>
           </pitch>
         <duration>24</duration>
         <voice>1</voice>
         <type>half</type>
         <accidental>sharp</accidental>
         <stem>down</stem>
         <notehead color="#0000FF">normal</notehead>
         <staff>1</staff>
         </note>
       <backup>
         <duration>48</duration>
         </backup>
       <note>
         <rest/>
         <duration>48</duration>
         <voice>5</voice>
         <staff>2</staff>
         </note>
       </measure>
     <measure number="2" width="145.21">
       <note default-x="12.00" default-y="-30.00">
         <pitch>
           <step>G</step>
           <octave>4</octave>
           </pitch>
         <duration>12</duration>
         <voice>1</voice>
         <type>quarter</type>
         <stem>up</stem>
         <notehead color="#FF0000">normal</notehead>
         <staff>1</staff>
         <lyric number="1">
           <syllabic>single</syllabic>
           <text>1</text>
           </lyric>
         <lyric number="2">
           <syllabic>single</syllabic>
           <text>2</text>
           </lyric>
         </note>
       <note default-x="12.00" default-y="-15.00">
         <chord/>
         <pitch>
           <step>C</step>
           <octave>5</octave>
           </pitch>
         <duration>12</duration>
         <voice>1</voice>
         <type>quarter</type>
         <stem>up</stem>
         <notehead color="#0000FF">normal</notehead>
         <staff>1</staff>
         </note>
       <note>
         <rest/>
         <duration>12</duration>
         <voice>1</voice>
         <type>quarter</type>
         <staff>1</staff>
         </note>
       <note>
         <rest/>
         <duration>24</duration>
         <voice>1</voice>
         <type>half</type>
         <staff>1</staff>
         </note>
       <backup>
         <duration>48</duration>
         </backup>
       <note>
         <rest/>
         <duration>48</duration>
         <voice>5</voice>
         <staff>2</staff>
         </note>
       </measure>
     <measure number="3" width="135.49">
       <attributes>
         <time>
           <beats>3</beats>
           <beat-type>8</beat-type>
           </time>
         </attributes>
       <direction placement="above">
         <direction-type>
           <metronome parentheses="no">
             <beat-unit>eighth</beat-unit>
             <per-minute>60</per-minute>
             </metronome>
           </direction-type>
         <staff>1</staff>
         <sound tempo="30"/>
         </direction>
       <note>
         <rest/>
         <duration>12</duration>
         <voice>1</voice>
         <type>quarter</type>
         <staff>1</staff>
         </note>
       <note default-x="74.49" default-y="-40.00">
         <grace/>
         <pitch>
           <step>E</step>
           <octave>4</octave>
           </pitch>
         <voice>1</voice>
         <type>16th</type>
         <stem>up</stem>
         <staff>1</staff>
         <beam number="1">begin</beam>
         <beam number="2">forward hook</beam>
         </note>
       <note default-x="85.46" default-y="-25.00">
         <grace/>
         <pitch>
           <step>A</step>
           <octave>4</octave>
           </pitch>
         <voice>1</voice>
         <type>eighth</type>
         <stem>up</stem>
         <staff>1</staff>
         <beam number="1">end</beam>
         </note>
       <note default-x="97.18" default-y="-40.00">
         <pitch>
           <step>E</step>
           <octave>4</octave>
           </pitch>
         <duration>6</duration>
         <voice>1</voice>
         <type>eighth</type>
         <stem>up</stem>
         <notehead color="#FF0000">normal</notehead>
         <staff>1</staff>
         </note>
       <note default-x="97.18" default-y="-15.00">
         <chord/>
         <pitch>
           <step>C</step>
           <octave>5</octave>
           </pitch>
         <duration>6</duration>
         <voice>1</voice>
         <type>eighth</type>
         <stem>up</stem>
         <notehead color="#0000FF">normal</notehead>
         <staff>1</staff>
         </note>
       <backup>
         <duration>18</duration>
         </backup>
       <note>
         <rest/>
         <duration>12</duration>
         <voice>5</voice>
         <type>quarter</type>
         <staff>2</staff>
         </note>
       <note default-x="85.46" default-y="-223.00">
         <grace/>
         <pitch>
           <step>C</step>
           <octave>3</octave>
           </pitch>
         <voice>5</voice>
         <type>quarter</type>
         <stem>up</stem>
         <staff>2</staff>
         </note>
       <note default-x="97.18" default-y="-223.00">
         <pitch>
           <step>C</step>
           <octave>3</octave>
           </pitch>
         <duration>6</duration>
         <voice>5</voice>
         <type>eighth</type>
         <stem>up</stem>
         <notehead color="#AA00FF">normal</notehead>
         <staff>2</staff>
         <lyric number="1">
           <syllabic>single</syllabic>
           <text>3</text>
           </lyric>
         </note>
       </measure>
     <measure number="4" width="156.70">
       <note default-x="20.42" default-y="-55.00">
         <pitch>
           <step>B</step>
           <alter>1</alter>
           <octave>3</octave>
           </pitch>
         <duration>6</duration>
         <voice>1</voice>
         <type>eighth</type>
         <accidental>sharp</accidental>
         <stem>up</stem>
         <notehead color="#0000FF">normal</notehead>
         <staff>1</staff>
         </note>
       <note default-x="57.52" default-y="-40.00">
         <pitch>
           <step>E</step>
           <octave>4</octave>
           </pitch>
         <duration>12</duration>
         <voice>1</voice>
         <type>quarter</type>
         <stem>up</stem>
         <notehead color="#FF0000">normal</notehead>
         <staff>1</staff>
         </note>
       <note default-x="57.52" default-y="-25.00">
         <chord/>
         <pitch>
           <step>A</step>
           <octave>4</octave>
           </pitch>
         <duration>12</duration>
         <voice>1</voice>
         <type>quarter</type>
         <stem>up</stem>
         <notehead color="#0000FF">normal</notehead>
         <staff>1</staff>
         </note>
       <backup>
         <duration>18</duration>
         </backup>
       <note default-x="20.42" default-y="-213.00">
         <pitch>
           <step>E</step>
           <octave>3</octave>
           </pitch>
         <duration>6</duration>
         <voice>5</voice>
         <type>eighth</type>
         <stem>down</stem>
         <notehead color="#AA00FF">normal</notehead>
         <staff>2</staff>
         <beam number="1">begin</beam>
         </note>
       <note default-x="57.52" default-y="-213.00">
         <pitch>
           <step>E</step>
           <octave>3</octave>
           </pitch>
         <duration>3</duration>
         <voice>5</voice>
         <type>16th</type>
         <stem>down</stem>
         <notehead color="#AA00FF">normal</notehead>
         <staff>2</staff>
         <beam number="1">end</beam>
         <beam number="2">backward hook</beam>
         </note>
       <note>
         <rest/>
         <duration>3</duration>
         <voice>5</voice>
         <type>16th</type>
         <staff>2</staff>
         </note>
       <note default-x="97.01" default-y="-218.00">
         <grace/>
         <pitch>
           <step>D</step>
           <octave>3</octave>
           </pitch>
         <voice>5</voice>
         <type>quarter</type>
         <stem>up</stem>
         <staff>2</staff>
         </note>
       <note default-x="108.72" default-y="-218.00">
         <pitch>
           <step>D</step>
           <octave>3</octave>
           </pitch>
         <duration>3</duration>
         <voice>5</voice>
         <type>16th</type>
         <stem>down</stem>
         <notehead color="#AA00FF">normal</notehead>
         <staff>2</staff>
         </note>
       <note>
         <rest/>
         <duration>3</duration>
         <voice>5</voice>
         <type>16th</type>
         <staff>2</staff>
         </note>
       </measure>
     <measure number="5" width="120.03">
       <note default-x="12.00" default-y="-50.00">
         <pitch>
           <step>C</step>
           <octave>4</octave>
           </pitch>
         <duration>12</duration>
         <voice>1</voice>
         <type>quarter</type>
         <stem>up</stem>
         <notehead color="#FF0000">normal</notehead>
         <staff>1</staff>
         </note>
       <note default-x="12.00" default-y="-25.00">
         <chord/>
         <pitch>
           <step>A</step>
           <octave>4</octave>
           </pitch>
         <duration>12</duration>
         <voice>1</voice>
         <type>quarter</type>
         <stem>up</stem>
         <notehead color="#0000FF">normal</notehead>
         <staff>1</staff>
         </note>
       <note default-x="67.09" default-y="-50.00">
         <pitch>
           <step>C</step>
           <octave>4</octave>
           </pitch>
         <duration>3</duration>
         <voice>1</voice>
         <type>16th</type>
         <stem>up</stem>
         <notehead color="#0000FF">normal</notehead>
         <staff>1</staff>
         </note>
       <note>
         <rest/>
         <duration>3</duration>
         <voice>1</voice>
         <type>16th</type>
         <staff>1</staff>
         </note>
       <backup>
         <duration>18</duration>
         </backup>
       <note>
         <rest/>
         <duration>18</duration>
         <voice>5</voice>
         <staff>2</staff>
         </note>
       </measure>
     <measure number="6" width="225.13">
       <note default-x="24.60" default-y="-55.00">
         <pitch>
           <step>B</step>
           <octave>3</octave>
           </pitch>
         <duration>6</duration>
         <tie type="start"/>
         <voice>1</voice>
         <type>eighth</type>
         <stem>up</stem>
         <notehead color="#00FF00">normal</notehead>
         <staff>1</staff>
         <notations>
           <tied type="start"/>
           </notations>
         <lyric number="1">
           <syllabic>single</syllabic>
           <text>1</text>
           </lyric>
         <lyric number="2">
           <syllabic>single</syllabic>
           <text>2</text>
           </lyric>
         <lyric number="3">
           <syllabic>single</syllabic>
           <text>4,11</text>
           </lyric>
         </note>
       <note default-x="24.60" default-y="-30.00">
         <chord/>
         <pitch>
           <step>G</step>
           <octave>4</octave>
           </pitch>
         <duration>6</duration>
         <voice>1</voice>
         <type>eighth</type>
         <stem>up</stem>
         <notehead color="#FF0000">normal</notehead>
         <staff>1</staff>
         </note>
       <note default-x="24.60" default-y="-15.00">
         <chord/>
         <pitch>
           <step>C</step>
           <octave>5</octave>
           </pitch>
         <duration>6</duration>
         <tie type="start"/>
         <voice>1</voice>
         <type>eighth</type>
         <stem>up</stem>
         <notehead color="#0000FF">normal</notehead>
         <staff>1</staff>
         <notations>
           <tied type="start"/>
           </notations>
         </note>
       <note default-x="84.25" default-y="-55.00">
         <pitch>
           <step>B</step>
           <octave>3</octave>
           </pitch>
         <duration>3</duration>
         <tie type="stop"/>
         <voice>1</voice>
         <type>16th</type>
         <stem>up</stem>
         <notehead color="#00FF00">normal</notehead>
         <staff>1</staff>
         <beam number="1">begin</beam>
         <beam number="2">begin</beam>
         <notations>
           <tied type="stop"/>
           </notations>
         </note>
       <note default-x="84.25" default-y="-35.00">
         <chord/>
         <pitch>
           <step>F</step>
           <octave>4</octave>
           </pitch>
         <duration>3</duration>
         <voice>1</voice>
         <type>16th</type>
         <stem>up</stem>
         <notehead color="#FF0000">normal</notehead>
         <staff>1</staff>
         </note>
       <note default-x="84.25" default-y="-15.00">
         <chord/>
         <pitch>
           <step>C</step>
           <octave>5</octave>
           </pitch>
         <duration>3</duration>
         <tie type="stop"/>
         <tie type="start"/>
         <voice>1</voice>
         <type>16th</type>
         <stem>up</stem>
         <notehead color="#0000FF">normal</notehead>
         <staff>1</staff>
         <notations>
           <tied type="stop"/>
           <tied type="start"/>
           </notations>
         </note>
       <note default-x="114.07" default-y="-55.00">
         <pitch>
           <step>B</step>
           <octave>3</octave>
           </pitch>
         <duration>3</duration>
         <tie type="start"/>
         <voice>1</voice>
         <type>16th</type>
         <stem>up</stem>
         <notehead color="#00FF00">normal</notehead>
         <staff>1</staff>
         <beam number="1">continue</beam>
         <beam number="2">continue</beam>
         <notations>
           <tied type="start"/>
           </notations>
         <lyric number="1">
           <syllabic>single</syllabic>
           <text>1</text>
           </lyric>
         <lyric number="2">
           <syllabic>single</syllabic>
           <text>2</text>
           </lyric>
         <lyric number="3">
           <syllabic>single</syllabic>
           <text>5</text>
           </lyric>
         <lyric number="4">
           <syllabic>single</syllabic>
           <text>4</text>
           </lyric>
         </note>
       <note default-x="114.07" default-y="-35.00">
         <chord/>
         <pitch>
           <step>F</step>
           <octave>4</octave>
           </pitch>
         <duration>3</duration>
         <voice>1</voice>
         <type>16th</type>
         <stem>up</stem>
         <notehead color="#FFAAFF">normal</notehead>
         <staff>1</staff>
         </note>
       <note default-x="114.07" default-y="-25.00">
         <chord/>
         <pitch>
           <step>A</step>
           <octave>4</octave>
           </pitch>
         <duration>3</duration>
         <tie type="start"/>
         <voice>1</voice>
         <type>16th</type>
         <stem>up</stem>
         <notehead color="#FF0000">normal</notehead>
         <staff>1</staff>
         <notations>
           <tied type="start"/>
           </notations>
         </note>
       <note default-x="114.07" default-y="-15.00">
         <chord/>
         <pitch>
           <step>C</step>
           <octave>5</octave>
           </pitch>
         <duration>3</duration>
         <tie type="stop"/>
         <tie type="start"/>
         <voice>1</voice>
         <type>16th</type>
         <stem>up</stem>
         <notehead color="#0000FF">normal</notehead>
         <staff>1</staff>
         <notations>
           <tied type="stop"/>
           <tied type="start"/>
           </notations>
         </note>
       <note default-x="143.89" default-y="-55.00">
         <pitch>
           <step>B</step>
           <octave>3</octave>
           </pitch>
         <duration>3</duration>
         <tie type="stop"/>
         <voice>1</voice>
         <type>16th</type>
         <stem>up</stem>
         <notehead color="#00FF00">normal</notehead>
         <staff>1</staff>
         <beam number="1">end</beam>
         <beam number="2">end</beam>
         <notations>
           <tied type="stop"/>
           </notations>
         </note>
       <note default-x="143.89" default-y="-25.00">
         <chord/>
         <pitch>
           <step>A</step>
           <octave>4</octave>
           </pitch>
         <duration>3</duration>
         <tie type="stop"/>
         <voice>1</voice>
         <type>16th</type>
         <stem>up</stem>
         <notehead color="#FF0000">normal</notehead>
         <staff>1</staff>
         <notations>
           <tied type="stop"/>
           </notations>
         </note>
       <note default-x="143.89" default-y="-15.00">
         <chord/>
         <pitch>
           <step>C</step>
           <octave>5</octave>
           </pitch>
         <duration>3</duration>
         <tie type="stop"/>
         <voice>1</voice>
         <type>16th</type>
         <stem>up</stem>
         <notehead color="#0000FF">normal</notehead>
         <staff>1</staff>
         <notations>
           <tied type="stop"/>
           </notations>
         </note>
       <note>
         <rest/>
         <duration>3</duration>
         <voice>1</voice>
         <type>16th</type>
         <staff>1</staff>
         </note>
       <backup>
         <duration>18</duration>
         </backup>
       <note default-x="24.60" default-y="-218.00">
         <pitch>
           <step>D</step>
           <octave>3</octave>
           </pitch>
         <duration>3</duration>
         <voice>5</voice>
         <type>16th</type>
         <stem>up</stem>
         <notehead color="#AA00FF">normal</notehead>
         <staff>2</staff>
         <beam number="1">begin</beam>
         <beam number="2">begin</beam>
         <lyric number="1">
           <syllabic>single</syllabic>
           <text>3</text>
           </lyric>
         </note>
       <note default-x="54.43" default-y="-223.00">
         <pitch>
           <step>C</step>
           <octave>3</octave>
           </pitch>
         <duration>3</duration>
         <voice>5</voice>
         <type>16th</type>
         <stem>up</stem>
         <notehead color="#AA00FF">normal</notehead>
         <staff>2</staff>
         <beam number="1">continue</beam>
         <beam number="2">continue</beam>
         <lyric number="1">
           <syllabic>single</syllabic>
           <text>3,11</text>
           </lyric>
         </note>
       <note default-x="84.25" default-y="-218.00">
         <pitch>
           <step>D</step>
           <octave>3</octave>
           </pitch>
         <duration>3</duration>
         <voice>5</voice>
         <type>16th</type>
         <stem>up</stem>
         <notehead color="#AA00FF">normal</notehead>
         <staff>2</staff>
         <beam number="1">end</beam>
         <beam number="2">end</beam>
         </note>
       <note>
         <rest/>
         <duration>3</duration>
         <voice>5</voice>
         <type>16th</type>
         <staff>2</staff>
         </note>
       <note>
         <rest/>
         <duration>6</duration>
         <voice>5</voice>
         <type>eighth</type>
         <staff>2</staff>
         </note>
       </measure>
     <measure number="7" width="256.04">
       <print new-system="yes">
         <system-layout>
           <system-margins>
             <left-margin>21.00</left-margin>
             <right-margin>-0.00</right-margin>
             </system-margins>
           <system-distance>150.00</system-distance>
           </system-layout>
         <staff-layout number="2">
           <staff-distance>106.00</staff-distance>
           </staff-layout>
         </print>
       <attributes>
         <time>
           <beats>6</beats>
           <beat-type>8</beat-type>
           </time>
         </attributes>
       <direction placement="above">
         <direction-type>
           <metronome parentheses="no">
             <beat-unit>quarter</beat-unit>
             <beat-unit-dot/>
             <per-minute>81</per-minute>
             </metronome>
           </direction-type>
         <staff>1</staff>
         <sound tempo="121.5"/>
         </direction>
       <note default-x="76.25" default-y="-50.00">
         <pitch>
           <step>C</step>
           <octave>4</octave>
           </pitch>
         <duration>12</duration>
         <voice>1</voice>
         <type>quarter</type>
         <stem>up</stem>
         <notehead color="#FF0000">normal</notehead>
         <staff>1</staff>
         </note>
       <note default-x="76.25" default-y="-25.00">
         <chord/>
         <pitch>
           <step>A</step>
           <octave>4</octave>
           </pitch>
         <duration>12</duration>
         <voice>1</voice>
         <type>quarter</type>
         <stem>up</stem>
         <notehead color="#0000FF">normal</notehead>
         <staff>1</staff>
         </note>
       <note default-x="122.86" default-y="-25.00">
         <pitch>
           <step>A</step>
           <octave>4</octave>
           </pitch>
         <duration>3</duration>
         <voice>1</voice>
         <type>16th</type>
         <stem>up</stem>
         <notehead color="#0000FF">normal</notehead>
         <staff>1</staff>
         <notations>
           <articulations>
             <staccato/>
             </articulations>
           </notations>
         </note>
       <note>
         <rest>
           <display-step>A</display-step>
           <display-octave>3</display-octave>
           </rest>
         <duration>3</duration>
         <voice>1</voice>
         <type>16th</type>
         <staff>1</staff>
         </note>
       <note>
         <rest>
           <display-step>A</display-step>
           <display-octave>3</display-octave>
           </rest>
         <duration>6</duration>
         <voice>1</voice>
         <type>eighth</type>
         <staff>1</staff>
         </note>
       <note default-x="219.41" default-y="-20.00">
         <pitch>
           <step>B</step>
           <octave>4</octave>
           </pitch>
         <duration>12</duration>
         <voice>1</voice>
         <type>quarter</type>
         <stem>up</stem>
         <notehead color="#FF0000">normal</notehead>
         <staff>1</staff>
         <notations>
           <articulations>
             <staccato/>
             </articulations>
           </notations>
         <lyric number="1">
           <syllabic>single</syllabic>
           <text>1</text>
           </lyric>
         <lyric number="2">
           <syllabic>single</syllabic>
           <text>2</text>
           </lyric>
         </note>
       <note default-x="231.28" default-y="-15.00">
         <chord/>
         <pitch>
           <step>C</step>
           <octave>5</octave>
           </pitch>
         <duration>12</duration>
         <voice>1</voice>
         <type>quarter</type>
         <stem>up</stem>
         <notehead color="#0000FF">normal</notehead>
         <staff>1</staff>
         </note>
       <backup>
         <duration>12</duration>
         </backup>
       <note default-x="219.41" default-y="-35.00">
         <pitch>
           <step>F</step>
           <octave>4</octave>
           </pitch>
         <duration>12</duration>
         <voice>2</voice>
         <type>quarter</type>
         <stem>up</stem>
         <notehead color="#00FF00">normal</notehead>
         <staff>1</staff>
         <lyric number="1">
           <syllabic>single</syllabic>
           <text>4</text>
           </lyric>
         </note>
       <backup>
         <duration>12</duration>
         </backup>
       <note default-x="204.24" default-y="-25.00">
         <pitch>
           <step>A</step>
           <octave>4</octave>
           </pitch>
         <duration>12</duration>
         <voice>3</voice>
         <type>quarter</type>
         <stem>down</stem>
         <notehead color="#00FFFF">normal</notehead>
         <staff>1</staff>
         <lyric number="1">
           <syllabic>single</syllabic>
           <text>9</text>
           </lyric>
         </note>
       <backup>
         <duration>36</duration>
         </backup>
       <note default-x="76.25" default-y="-171.00">
         <pitch>
           <step>C</step>
           <octave>3</octave>
           </pitch>
         <duration>12</duration>
         <voice>5</voice>
         <type>quarter</type>
         <stem>down</stem>
         <notehead color="#FFAA00">normal</notehead>
         <staff>2</staff>
         <lyric number="1">
           <syllabic>single</syllabic>
           <text>3</text>
           </lyric>
         <lyric number="2">
           <syllabic>single</syllabic>
           <text>7</text>
           </lyric>
         </note>
       <note default-x="76.25" default-y="-151.00">
         <chord/>
         <pitch>
           <step>G</step>
           <octave>3</octave>
           </pitch>
         <duration>12</duration>
         <voice>5</voice>
         <type>quarter</type>
         <stem>down</stem>
         <notehead color="#AA00FF">normal</notehead>
         <staff>2</staff>
         </note>
       <note default-x="122.86" default-y="-171.00">
         <pitch>
           <step>C</step>
           <octave>3</octave>
           </pitch>
         <duration>12</duration>
         <voice>5</voice>
         <type>quarter</type>
         <stem>up</stem>
         <notehead color="#FFAA00">normal</notehead>
         <staff>2</staff>
         <lyric number="1">
           <syllabic>single</syllabic>
           <text>7,3</text>
           </lyric>
         </note>
       <note default-x="204.24" default-y="-176.00">
         <pitch>
           <step>B</step>
           <octave>2</octave>
           </pitch>
         <duration>12</duration>
         <voice>5</voice>
         <type>quarter</type>
         <stem>down</stem>
         <notehead color="#FFAA00">normal</notehead>
         <staff>2</staff>
         <notations>
           <articulations>
             <staccato/>
             </articulations>
           </notations>
         <lyric number="1">
           <syllabic>single</syllabic>
           <text>3</text>
           </lyric>
         <lyric number="2">
           <syllabic>single</syllabic>
           <text>8</text>
           </lyric>
         <lyric number="3">
           <syllabic>single</syllabic>
           <text>7</text>
           </lyric>
         </note>
       <note default-x="204.24" default-y="-156.00">
         <chord/>
         <pitch>
           <step>F</step>
           <octave>3</octave>
           </pitch>
         <duration>12</duration>
         <voice>5</voice>
         <type>quarter</type>
         <stem>down</stem>
         <notehead color="#FFFF00">normal</notehead>
         <staff>2</staff>
         </note>
       <note default-x="204.24" default-y="-141.00">
         <chord/>
         <pitch>
           <step>B</step>
           <octave>3</octave>
           </pitch>
         <duration>12</duration>
         <voice>5</voice>
         <type>quarter</type>
         <stem>down</stem>
         <notehead color="#AA00FF">normal</notehead>
         <staff>2</staff>
         </note>
       </measure>
     <measure number="8" width="331.95">
       <attributes>
         <key>
           <fifths>1</fifths>
           </key>
         </attributes>
       <note default-x="57.07" default-y="-50.00">
         <pitch>
           <step>C</step>
           <octave>4</octave>
           </pitch>
         <duration>3</duration>
         <voice>1</voice>
         <type>16th</type>
         <stem>up</stem>
         <notehead color="#0000FF">normal</notehead>
         <staff>1</staff>
         <beam number="1">begin</beam>
         <beam number="2">begin</beam>
         <lyric number="1">
           <syllabic>single</syllabic>
           <text>1,2,9,4</text>
           </lyric>
         </note>
       <note default-x="96.30" default-y="-45.00">
         <pitch>
           <step>D</step>
           <octave>4</octave>
           </pitch>
         <duration>3</duration>
         <voice>1</voice>
         <type>16th</type>
         <stem>up</stem>
         <notehead color="#0000FF">normal</notehead>
         <staff>1</staff>
         <beam number="1">continue</beam>
         <beam number="2">continue</beam>
         <lyric number="1">
           <syllabic>single</syllabic>
           <text>1</text>
           </lyric>
         </note>
       <note default-x="116.99" default-y="-40.00">
         <pitch>
           <step>E</step>
           <octave>4</octave>
           </pitch>
         <duration>3</duration>
         <voice>1</voice>
         <type>16th</type>
         <stem>up</stem>
         <notehead color="#0000FF">normal</notehead>
         <staff>1</staff>
         <beam number="1">continue</beam>
         <beam number="2">continue</beam>
         </note>
       <note default-x="137.69" default-y="-35.00">
         <pitch>
           <step>F</step>
           <alter>1</alter>
           <octave>4</octave>
           </pitch>
         <duration>3</duration>
         <voice>1</voice>
         <type>16th</type>
         <stem>up</stem>
         <notehead color="#0000FF">normal</notehead>
         <staff>1</staff>
         <beam number="1">continue</beam>
         <beam number="2">continue</beam>
         </note>
       <note default-x="158.38" default-y="-30.00">
         <pitch>
           <step>G</step>
           <octave>4</octave>
           </pitch>
         <duration>3</duration>
         <voice>1</voice>
         <type>16th</type>
         <stem>up</stem>
         <notehead color="#0000FF">normal</notehead>
         <staff>1</staff>
         <beam number="1">continue</beam>
         <beam number="2">continue</beam>
         </note>
       <note default-x="179.07" default-y="-25.00">
         <pitch>
           <step>A</step>
           <octave>4</octave>
           </pitch>
         <duration>3</duration>
         <voice>1</voice>
         <type>16th</type>
         <stem>up</stem>
         <notehead color="#0000FF">normal</notehead>
         <staff>1</staff>
         <beam number="1">end</beam>
         <beam number="2">end</beam>
         </note>
       <note default-x="199.77" default-y="-20.00">
         <pitch>
           <step>B</step>
           <octave>4</octave>
           </pitch>
         <duration>3</duration>
         <voice>1</voice>
         <type>16th</type>
         <stem>down</stem>
         <notehead color="#0000FF">normal</notehead>
         <staff>1</staff>
         <beam number="1">begin</beam>
         <beam number="2">begin</beam>
         </note>
       <note default-x="220.46" default-y="-15.00">
         <pitch>
           <step>C</step>
           <octave>5</octave>
           </pitch>
         <duration>3</duration>
         <voice>1</voice>
         <type>16th</type>
         <stem>down</stem>
         <notehead color="#0000FF">normal</notehead>
         <staff>1</staff>
         <beam number="1">continue</beam>
         <beam number="2">continue</beam>
         </note>
       <note default-x="255.85" default-y="-10.00">
         <pitch>
           <step>D</step>
           <alter>-2</alter>
           <octave>5</octave>
           </pitch>
         <duration>3</duration>
         <voice>1</voice>
         <type>16th</type>
         <accidental>flat-flat</accidental>
         <stem>down</stem>
         <notehead color="#0000FF">normal</notehead>
         <staff>1</staff>
         <beam number="1">end</beam>
         <beam number="2">end</beam>
         </note>
       <note>
         <rest/>
         <duration>3</duration>
         <voice>1</voice>
         <type>16th</type>
         <staff>1</staff>
         </note>
       <note>
         <rest/>
         <duration>6</duration>
         <voice>1</voice>
         <type>eighth</type>
         <staff>1</staff>
         </note>
       <backup>
         <duration>36</duration>
         </backup>
       <note>
         <rest/>
         <duration>12</duration>
         <voice>5</voice>
         <type>quarter</type>
         <staff>2</staff>
         </note>
       <note>
         <rest/>
         <duration>24</duration>
         <voice>5</voice>
         <type>half</type>
         <staff>2</staff>
         </note>
       </measure>
     <measure number="9" width="176.83">
       <note default-x="12.00" default-y="-15.00">
         <pitch>
           <step>C</step>
           <octave>5</octave>
           </pitch>
         <duration>4</duration>
         <voice>1</voice>
         <type>eighth</type>
         <time-modification>
           <actual-notes>3</actual-notes>
           <normal-notes>2</normal-notes>
           </time-modification>
         <stem>down</stem>
         <notehead color="#0000FF">normal</notehead>
         <staff>1</staff>
         <beam number="1">begin</beam>
         <notations>
           <tuplet type="start" bracket="no"/>
           </notations>
         </note>
       <note default-x="32.93" default-y="-15.00">
         <pitch>
           <step>C</step>
           <octave>5</octave>
           </pitch>
         <duration>4</duration>
         <voice>1</voice>
         <type>eighth</type>
         <time-modification>
           <actual-notes>3</actual-notes>
           <normal-notes>2</normal-notes>
           </time-modification>
         <stem>down</stem>
         <notehead color="#0000FF">normal</notehead>
         <staff>1</staff>
         <beam number="1">continue</beam>
         </note>
       <note default-x="53.85" default-y="-15.00">
         <pitch>
           <step>C</step>
           <octave>5</octave>
           </pitch>
         <duration>4</duration>
         <voice>1</voice>
         <type>eighth</type>
         <time-modification>
           <actual-notes>3</actual-notes>
           <normal-notes>2</normal-notes>
           </time-modification>
         <stem>down</stem>
         <notehead color="#0000FF">normal</notehead>
         <staff>1</staff>
         <beam number="1">end</beam>
         <notations>
           <tuplet type="stop"/>
           </notations>
         </note>
       <note default-x="74.78" default-y="-15.00">
         <pitch>
           <step>C</step>
           <octave>5</octave>
           </pitch>
         <duration>8</duration>
         <voice>1</voice>
         <type>quarter</type>
         <time-modification>
           <actual-notes>3</actual-notes>
           <normal-notes>2</normal-notes>
           </time-modification>
         <stem>down</stem>
         <notehead color="#0000FF">normal</notehead>
         <staff>1</staff>
         <notations>
           <tuplet type="start" bracket="yes"/>
           </notations>
         </note>
       <note default-x="108.26" default-y="-15.00">
         <pitch>
           <step>C</step>
           <octave>5</octave>
           </pitch>
         <duration>8</duration>
         <voice>1</voice>
         <type>quarter</type>
         <time-modification>
           <actual-notes>3</actual-notes>
           <normal-notes>2</normal-notes>
           </time-modification>
         <stem>down</stem>
         <notehead color="#0000FF">normal</notehead>
         <staff>1</staff>
         </note>
       <note default-x="141.75" default-y="-15.00">
         <pitch>
           <step>C</step>
           <octave>5</octave>
           </pitch>
         <duration>8</duration>
         <voice>1</voice>
         <type>quarter</type>
         <time-modification>
           <actual-notes>3</actual-notes>
           <normal-notes>2</normal-notes>
           </time-modification>
         <stem>down</stem>
         <notehead color="#0000FF">normal</notehead>
         <staff>1</staff>
         <notations>
           <tuplet type="stop"/>
           </notations>
         </note>
       <backup>
         <duration>36</duration>
         </backup>
       <note>
         <rest/>
         <duration>36</duration>
         <voice>5</voice>
         <staff>2</staff>
         </note>
       </measure>
     <measure number="10" width="291.67">
       <note default-x="12.00" default-y="-15.00">
         <pitch>
           <step>C</step>
           <octave>5</octave>
           </pitch>
         <duration>2</duration>
         <voice>1</voice>
         <type>16th</type>
         <time-modification>
           <actual-notes>3</actual-notes>
           <normal-notes>2</normal-notes>
           </time-modification>
         <stem>down</stem>
         <notehead color="#0000FF">normal</notehead>
         <staff>1</staff>
         <notations>
           <tuplet type="start" bracket="no"/>
           </notations>
         </note>
       <note>
         <rest/>
         <duration>2</duration>
         <voice>1</voice>
         <type>16th</type>
         <time-modification>
           <actual-notes>3</actual-notes>
           <normal-notes>2</normal-notes>
           </time-modification>
         <staff>1</staff>
         </note>
       <note default-x="60.63" default-y="-15.00">
         <pitch>
           <step>C</step>
           <octave>5</octave>
           </pitch>
         <duration>2</duration>
         <voice>1</voice>
         <type>16th</type>
         <time-modification>
           <actual-notes>3</actual-notes>
           <normal-notes>2</normal-notes>
           </time-modification>
         <stem>down</stem>
         <notehead color="#0000FF">normal</notehead>
         <staff>1</staff>
         <beam number="1">begin</beam>
         <beam number="2">begin</beam>
         <notations>
           <tuplet type="stop"/>
           </notations>
         </note>
       <note default-x="88.90" default-y="-15.00">
         <pitch>
           <step>C</step>
           <octave>5</octave>
           </pitch>
         <duration>2</duration>
         <voice>1</voice>
         <type>16th</type>
         <time-modification>
           <actual-notes>3</actual-notes>
           <normal-notes>2</normal-notes>
           <normal-type>16th</normal-type>
           </time-modification>
         <stem>down</stem>
         <notehead color="#0000FF">normal</notehead>
         <staff>1</staff>
         <beam number="1">continue</beam>
         <beam number="2">continue</beam>
         <notations>
           <tuplet type="start" bracket="no"/>
           </notations>
         <lyric number="1">
           <syllabic>single</syllabic>
           <text>1,10</text>
           </lyric>
         </note>
       <note default-x="121.55" default-y="-15.00">
         <pitch>
           <step>C</step>
           <octave>5</octave>
           </pitch>
         <duration>1</duration>
         <voice>1</voice>
         <type>32nd</type>
         <time-modification>
           <actual-notes>3</actual-notes>
           <normal-notes>2</normal-notes>
           <normal-type>16th</normal-type>
           </time-modification>
         <stem>down</stem>
         <notehead color="#0000FF">normal</notehead>
         <staff>1</staff>
         <beam number="1">continue</beam>
         <beam number="2">continue</beam>
         <beam number="3">begin</beam>
         <lyric number="1">
           <syllabic>single</syllabic>
           <text>10</text>
           </lyric>
         <lyric number="2">
           <syllabic>single</syllabic>
           <text>1</text>
           </lyric>
         </note>
       <note default-x="121.55" default-y="5.00">
         <chord/>
         <pitch>
           <step>G</step>
           <octave>5</octave>
           </pitch>
         <duration>1</duration>
         <voice>1</voice>
         <type>32nd</type>
         <time-modification>
           <actual-notes>3</actual-notes>
           <normal-notes>2</normal-notes>
           <normal-type>16th</normal-type>
           </time-modification>
         <stem>down</stem>
         <notehead color="#55557F">normal</notehead>
         <staff>1</staff>
         </note>
       <note default-x="141.60" default-y="-15.00">
         <pitch>
           <step>C</step>
           <octave>5</octave>
           </pitch>
         <duration>1</duration>
         <voice>1</voice>
         <type>32nd</type>
         <time-modification>
           <actual-notes>3</actual-notes>
           <normal-notes>2</normal-notes>
           <normal-type>16th</normal-type>
           </time-modification>
         <stem>down</stem>
         <notehead color="#0000FF">normal</notehead>
         <staff>1</staff>
         <beam number="1">continue</beam>
         <beam number="2">continue</beam>
         <beam number="3">end</beam>
         </note>
       <note default-x="141.60" default-y="5.00">
         <chord/>
         <pitch>
           <step>G</step>
           <octave>5</octave>
           </pitch>
         <duration>1</duration>
         <voice>1</voice>
         <type>32nd</type>
         <time-modification>
           <actual-notes>3</actual-notes>
           <normal-notes>2</normal-notes>
           <normal-type>16th</normal-type>
           </time-modification>
         <stem>down</stem>
         <notehead color="#55557F">normal</notehead>
         <staff>1</staff>
         </note>
       <note default-x="161.66" default-y="-15.00">
         <pitch>
           <step>C</step>
           <octave>5</octave>
           </pitch>
         <duration>2</duration>
         <voice>1</voice>
         <type>16th</type>
         <time-modification>
           <actual-notes>3</actual-notes>
           <normal-notes>2</normal-notes>
           <normal-type>16th</normal-type>
           </time-modification>
         <stem>down</stem>
         <notehead color="#0000FF">normal</notehead>
         <staff>1</staff>
         <beam number="1">end</beam>
         <beam number="2">end</beam>
         <notations>
           <tuplet type="stop"/>
           </notations>
         <lyric number="1">
           <syllabic>single</syllabic>
           <text>10</text>
           </lyric>
         <lyric number="2">
           <syllabic>single</syllabic>
           <text>1</text>
           </lyric>
         </note>
       <note default-x="161.66" default-y="5.00">
         <chord/>
         <pitch>
           <step>G</step>
           <octave>5</octave>
           </pitch>
         <duration>2</duration>
         <voice>1</voice>
         <type>16th</type>
         <time-modification>
           <actual-notes>3</actual-notes>
           <normal-notes>2</normal-notes>
           <normal-type>16th</normal-type>
           </time-modification>
         <stem>down</stem>
         <notehead color="#55557F">normal</notehead>
         <staff>1</staff>
         </note>
       <note default-x="194.31" default-y="-15.00">
         <pitch>
           <step>C</step>
           <octave>5</octave>
           </pitch>
         <duration>12</duration>
         <voice>1</voice>
         <type>quarter</type>
         <stem>down</stem>
         <notehead color="#0000FF">normal</notehead>
         <staff>1</staff>
         <lyric number="1">
           <syllabic>single</syllabic>
           <text>1,10</text>
           </lyric>
         </note>
       <note default-x="242.19" default-y="-40.00">
         <pitch>
           <step>E</step>
           <octave>4</octave>
           </pitch>
         <duration>12</duration>
         <tie type="start"/>
         <voice>1</voice>
         <type>quarter</type>
         <stem>up</stem>
         <notehead color="#FF0000">normal</notehead>
         <staff>1</staff>
         <notations>
           <tied type="start"/>
           </notations>
         </note>
       <note default-x="242.19" default-y="-15.00">
         <chord/>
         <pitch>
           <step>C</step>
           <octave>5</octave>
           </pitch>
         <duration>12</duration>
         <tie type="start"/>
         <voice>1</voice>
         <type>quarter</type>
         <stem>up</stem>
         <notehead color="#0000FF">normal</notehead>
         <staff>1</staff>
         <notations>
           <tied type="start"/>
           </notations>
         </note>
       <backup>
         <duration>36</duration>
         </backup>
       <note>
         <rest/>
         <duration>36</duration>
         <voice>5</voice>
         <staff>2</staff>
         </note>
       </measure>
     <measure number="11" width="254.87">
       <print new-system="yes">
         <system-layout>
           <system-margins>
             <left-margin>21.00</left-margin>
             <right-margin>801.63</right-margin>
             </system-margins>
           <system-distance>150.00</system-distance>
           </system-layout>
         <staff-layout number="2">
           <staff-distance>65.00</staff-distance>
           </staff-layout>
         </print>
       <note default-x="69.77" default-y="-40.00">
         <pitch>
           <step>E</step>
           <octave>4</octave>
           </pitch>
         <duration>12</duration>
         <tie type="stop"/>
         <voice>1</voice>
         <type>quarter</type>
         <stem>up</stem>
         <notehead color="#FF0000">normal</notehead>
         <staff>1</staff>
         <notations>
           <tied type="stop"/>
           </notations>
         </note>
       <note default-x="69.77" default-y="-15.00">
         <chord/>
         <pitch>
           <step>C</step>
           <octave>5</octave>
           </pitch>
         <duration>12</duration>
         <tie type="stop"/>
         <voice>1</voice>
         <type>quarter</type>
         <stem>up</stem>
         <notehead color="#0000FF">normal</notehead>
         <staff>1</staff>
         <notations>
           <tied type="stop"/>
           </notations>
         </note>
       <note>
         <rest/>
         <duration>24</duration>
         <voice>1</voice>
         <type>half</type>
         <staff>1</staff>
         </note>
       <backup>
         <duration>36</duration>
         </backup>
       <note>
         <rest/>
         <duration>36</duration>
         <voice>5</voice>
         <staff>2</staff>
         </note>
       <barline location="right">
         <bar-style>light-heavy</bar-style>
         </barline>
       </measure>
     </part>
   </score-partwise>
